<mxfile host="app.diagrams.net" modified="2023-12-21T13:40:07.023Z" agent="Mozilla/5.0 (Windows NT 10.0; Win64; x64) AppleWebKit/537.36 (KHTML, like Gecko) Chrome/120.0.0.0 Safari/537.36" etag="CFxOJc7QtF2nZdGwqVr3" version="22.1.11" type="github">
  <diagram name="Halaman-1" id="fsWMi9SR9Cmow-i4oCRV">
    <mxGraphModel dx="880" dy="468" grid="1" gridSize="10" guides="1" tooltips="1" connect="1" arrows="1" fold="1" page="1" pageScale="1" pageWidth="827" pageHeight="1169" math="0" shadow="0">
      <root>
        <mxCell id="0" />
        <mxCell id="1" parent="0" />
        <mxCell id="6D2A175xbtIk_vj6jTPu-1" value="Pelanggan" style="swimlane;html=1;startSize=20;fontStyle=0;collapsible=0;horizontal=0;swimlaneLine=1;swimlaneFillColor=#ffffff;strokeWidth=2;whiteSpace=wrap;" vertex="1" parent="1">
          <mxGeometry x="40" y="10" width="1230" height="100" as="geometry" />
        </mxCell>
        <mxCell id="6D2A175xbtIk_vj6jTPu-17" value="Pelanggan memberi form pemesanan" style="rounded=1;whiteSpace=wrap;html=1;labelBackgroundColor=#ffffff;" vertex="1" parent="6D2A175xbtIk_vj6jTPu-1">
          <mxGeometry x="50" y="20" width="120" height="60" as="geometry" />
        </mxCell>
        <mxCell id="6D2A175xbtIk_vj6jTPu-25" value="Melakukan pembayaran" style="rounded=1;whiteSpace=wrap;html=1;labelBackgroundColor=#ffffff;" vertex="1" parent="6D2A175xbtIk_vj6jTPu-1">
          <mxGeometry x="200" y="20" width="120" height="60" as="geometry" />
        </mxCell>
        <mxCell id="6D2A175xbtIk_vj6jTPu-39" value="" style="edgeStyle=orthogonalEdgeStyle;rounded=0;orthogonalLoop=1;jettySize=auto;html=1;" edge="1" parent="6D2A175xbtIk_vj6jTPu-1" source="6D2A175xbtIk_vj6jTPu-36" target="6D2A175xbtIk_vj6jTPu-38">
          <mxGeometry relative="1" as="geometry" />
        </mxCell>
        <mxCell id="6D2A175xbtIk_vj6jTPu-36" value="Menerima pesanan" style="rounded=1;whiteSpace=wrap;html=1;labelBackgroundColor=#ffffff;" vertex="1" parent="6D2A175xbtIk_vj6jTPu-1">
          <mxGeometry x="920" y="20" width="120" height="60" as="geometry" />
        </mxCell>
        <mxCell id="6D2A175xbtIk_vj6jTPu-38" value="Selesai" style="points=[[0.145,0.145,0],[0.5,0,0],[0.855,0.145,0],[1,0.5,0],[0.855,0.855,0],[0.5,1,0],[0.145,0.855,0],[0,0.5,0]];shape=mxgraph.bpmn.event;html=1;verticalLabelPosition=bottom;labelBackgroundColor=#ffffff;verticalAlign=top;align=center;perimeter=ellipsePerimeter;outlineConnect=0;aspect=fixed;outline=end;symbol=terminate2;" vertex="1" parent="6D2A175xbtIk_vj6jTPu-1">
          <mxGeometry x="1160" y="25" width="50" height="50" as="geometry" />
        </mxCell>
        <mxCell id="6D2A175xbtIk_vj6jTPu-2" value="Perusahaan" style="swimlane;html=1;childLayout=stackLayout;resizeParent=1;resizeParentMax=0;horizontal=0;startSize=20;horizontalStack=0;whiteSpace=wrap;" vertex="1" parent="1">
          <mxGeometry x="40" y="190" width="1230" height="490" as="geometry" />
        </mxCell>
        <mxCell id="6D2A175xbtIk_vj6jTPu-3" value="Sales" style="swimlane;html=1;startSize=20;horizontal=0;" vertex="1" parent="6D2A175xbtIk_vj6jTPu-2">
          <mxGeometry x="20" width="1210" height="235" as="geometry" />
        </mxCell>
        <mxCell id="6D2A175xbtIk_vj6jTPu-8" value="" style="edgeStyle=orthogonalEdgeStyle;rounded=0;orthogonalLoop=1;jettySize=auto;html=1;" edge="1" parent="6D2A175xbtIk_vj6jTPu-3" source="6D2A175xbtIk_vj6jTPu-6" target="6D2A175xbtIk_vj6jTPu-7">
          <mxGeometry relative="1" as="geometry" />
        </mxCell>
        <mxCell id="6D2A175xbtIk_vj6jTPu-6" value="Mulai" style="points=[[0.145,0.145,0],[0.5,0,0],[0.855,0.145,0],[1,0.5,0],[0.855,0.855,0],[0.5,1,0],[0.145,0.855,0],[0,0.5,0]];shape=mxgraph.bpmn.event;html=1;verticalLabelPosition=bottom;labelBackgroundColor=#ffffff;verticalAlign=top;align=center;perimeter=ellipsePerimeter;outlineConnect=0;aspect=fixed;outline=standard;symbol=general;" vertex="1" parent="6D2A175xbtIk_vj6jTPu-3">
          <mxGeometry x="30" y="92.5" width="50" height="50" as="geometry" />
        </mxCell>
        <mxCell id="6D2A175xbtIk_vj6jTPu-13" value="" style="edgeStyle=orthogonalEdgeStyle;rounded=0;orthogonalLoop=1;jettySize=auto;html=1;" edge="1" parent="6D2A175xbtIk_vj6jTPu-3" source="6D2A175xbtIk_vj6jTPu-7" target="6D2A175xbtIk_vj6jTPu-11">
          <mxGeometry relative="1" as="geometry" />
        </mxCell>
        <mxCell id="6D2A175xbtIk_vj6jTPu-7" value="Melakukan stock opname" style="rounded=1;whiteSpace=wrap;html=1;verticalAlign=middle;labelBackgroundColor=#ffffff;labelPosition=center;verticalLabelPosition=middle;align=center;" vertex="1" parent="6D2A175xbtIk_vj6jTPu-3">
          <mxGeometry x="110" y="87.5" width="120" height="60" as="geometry" />
        </mxCell>
        <mxCell id="6D2A175xbtIk_vj6jTPu-16" value="" style="edgeStyle=orthogonalEdgeStyle;rounded=0;orthogonalLoop=1;jettySize=auto;html=1;exitX=0.5;exitY=0;exitDx=0;exitDy=0;exitPerimeter=0;" edge="1" parent="6D2A175xbtIk_vj6jTPu-3" source="6D2A175xbtIk_vj6jTPu-11" target="6D2A175xbtIk_vj6jTPu-14">
          <mxGeometry relative="1" as="geometry">
            <Array as="points">
              <mxPoint x="285" y="58" />
            </Array>
          </mxGeometry>
        </mxCell>
        <mxCell id="6D2A175xbtIk_vj6jTPu-11" value="" style="points=[[0.25,0.25,0],[0.5,0,0],[0.75,0.25,0],[1,0.5,0],[0.75,0.75,0],[0.5,1,0],[0.25,0.75,0],[0,0.5,0]];shape=mxgraph.bpmn.gateway2;html=1;verticalLabelPosition=bottom;labelBackgroundColor=#ffffff;verticalAlign=top;align=center;perimeter=rhombusPerimeter;outlineConnect=0;outline=none;symbol=none;gwType=parallel;" vertex="1" parent="6D2A175xbtIk_vj6jTPu-3">
          <mxGeometry x="260" y="92.5" width="50" height="50" as="geometry" />
        </mxCell>
        <mxCell id="6D2A175xbtIk_vj6jTPu-14" value="Membuka toko&amp;nbsp;" style="rounded=1;whiteSpace=wrap;html=1;verticalAlign=middle;labelBackgroundColor=#ffffff;labelPosition=center;verticalLabelPosition=middle;align=center;" vertex="1" parent="6D2A175xbtIk_vj6jTPu-3">
          <mxGeometry x="354" y="27.5" width="120" height="60" as="geometry" />
        </mxCell>
        <mxCell id="6D2A175xbtIk_vj6jTPu-22" value="" style="edgeStyle=orthogonalEdgeStyle;rounded=0;orthogonalLoop=1;jettySize=auto;html=1;" edge="1" parent="6D2A175xbtIk_vj6jTPu-3" source="6D2A175xbtIk_vj6jTPu-19" target="6D2A175xbtIk_vj6jTPu-21">
          <mxGeometry relative="1" as="geometry" />
        </mxCell>
        <mxCell id="6D2A175xbtIk_vj6jTPu-19" value="Menyediakan pesanan pelanggan" style="rounded=1;whiteSpace=wrap;html=1;labelBackgroundColor=#ffffff;" vertex="1" parent="6D2A175xbtIk_vj6jTPu-3">
          <mxGeometry x="500" y="87.5" width="120" height="60" as="geometry" />
        </mxCell>
        <mxCell id="6D2A175xbtIk_vj6jTPu-21" value="Membuat nota pembayaran" style="rounded=1;whiteSpace=wrap;html=1;labelBackgroundColor=#ffffff;" vertex="1" parent="6D2A175xbtIk_vj6jTPu-3">
          <mxGeometry x="660" y="87.5" width="120" height="60" as="geometry" />
        </mxCell>
        <mxCell id="6D2A175xbtIk_vj6jTPu-31" value="" style="edgeStyle=orthogonalEdgeStyle;rounded=0;orthogonalLoop=1;jettySize=auto;html=1;" edge="1" parent="6D2A175xbtIk_vj6jTPu-3" source="6D2A175xbtIk_vj6jTPu-28" target="6D2A175xbtIk_vj6jTPu-30">
          <mxGeometry relative="1" as="geometry" />
        </mxCell>
        <mxCell id="6D2A175xbtIk_vj6jTPu-28" value="Menerima pembayaran" style="rounded=1;whiteSpace=wrap;html=1;labelBackgroundColor=#ffffff;" vertex="1" parent="6D2A175xbtIk_vj6jTPu-3">
          <mxGeometry x="810" y="87.5" width="120" height="60" as="geometry" />
        </mxCell>
        <mxCell id="6D2A175xbtIk_vj6jTPu-30" value="Membuat form pengiriman" style="rounded=1;whiteSpace=wrap;html=1;labelBackgroundColor=#ffffff;" vertex="1" parent="6D2A175xbtIk_vj6jTPu-3">
          <mxGeometry x="980" y="87.5" width="120" height="60" as="geometry" />
        </mxCell>
        <mxCell id="6D2A175xbtIk_vj6jTPu-40" value="Melaporkan kekurangan persediaan produk" style="rounded=1;whiteSpace=wrap;html=1;verticalAlign=top;labelBackgroundColor=#ffffff;" vertex="1" parent="6D2A175xbtIk_vj6jTPu-3">
          <mxGeometry x="354" y="147.5" width="120" height="60" as="geometry" />
        </mxCell>
        <mxCell id="6D2A175xbtIk_vj6jTPu-43" value="" style="endArrow=classic;html=1;rounded=0;exitX=0.5;exitY=1;exitDx=0;exitDy=0;exitPerimeter=0;entryX=0;entryY=0.5;entryDx=0;entryDy=0;" edge="1" parent="6D2A175xbtIk_vj6jTPu-3" source="6D2A175xbtIk_vj6jTPu-11" target="6D2A175xbtIk_vj6jTPu-40">
          <mxGeometry width="50" height="50" relative="1" as="geometry">
            <mxPoint x="260" y="70" as="sourcePoint" />
            <mxPoint x="310" y="20" as="targetPoint" />
            <Array as="points">
              <mxPoint x="285" y="178" />
            </Array>
          </mxGeometry>
        </mxCell>
        <mxCell id="6D2A175xbtIk_vj6jTPu-4" value="Inventori" style="swimlane;html=1;startSize=20;horizontal=0;" vertex="1" parent="6D2A175xbtIk_vj6jTPu-2">
          <mxGeometry x="20" y="235" width="1210" height="135" as="geometry" />
        </mxCell>
        <mxCell id="6D2A175xbtIk_vj6jTPu-47" value="" style="edgeStyle=orthogonalEdgeStyle;rounded=0;orthogonalLoop=1;jettySize=auto;html=1;" edge="1" parent="6D2A175xbtIk_vj6jTPu-4" source="6D2A175xbtIk_vj6jTPu-44" target="6D2A175xbtIk_vj6jTPu-46">
          <mxGeometry relative="1" as="geometry" />
        </mxCell>
        <mxCell id="6D2A175xbtIk_vj6jTPu-44" value="Menerima laporan kekurangan bahan baku" style="rounded=1;whiteSpace=wrap;html=1;verticalAlign=middle;labelBackgroundColor=#ffffff;labelPosition=center;verticalLabelPosition=middle;align=center;" vertex="1" parent="6D2A175xbtIk_vj6jTPu-4">
          <mxGeometry x="70" y="30" width="120" height="60" as="geometry" />
        </mxCell>
        <mxCell id="6D2A175xbtIk_vj6jTPu-49" value="" style="edgeStyle=orthogonalEdgeStyle;rounded=0;orthogonalLoop=1;jettySize=auto;html=1;" edge="1" parent="6D2A175xbtIk_vj6jTPu-4" source="6D2A175xbtIk_vj6jTPu-46" target="6D2A175xbtIk_vj6jTPu-48">
          <mxGeometry relative="1" as="geometry" />
        </mxCell>
        <mxCell id="6D2A175xbtIk_vj6jTPu-46" value="Membuat form permintaan produksi" style="rounded=1;whiteSpace=wrap;html=1;labelBackgroundColor=#ffffff;" vertex="1" parent="6D2A175xbtIk_vj6jTPu-4">
          <mxGeometry x="234" y="30" width="120" height="60" as="geometry" />
        </mxCell>
        <mxCell id="6D2A175xbtIk_vj6jTPu-53" value="" style="edgeStyle=orthogonalEdgeStyle;rounded=0;orthogonalLoop=1;jettySize=auto;html=1;" edge="1" parent="6D2A175xbtIk_vj6jTPu-4" source="6D2A175xbtIk_vj6jTPu-48" target="6D2A175xbtIk_vj6jTPu-52">
          <mxGeometry relative="1" as="geometry" />
        </mxCell>
        <mxCell id="6D2A175xbtIk_vj6jTPu-48" value="Menyerahkan form permintaan produksi" style="rounded=1;whiteSpace=wrap;html=1;labelBackgroundColor=#ffffff;" vertex="1" parent="6D2A175xbtIk_vj6jTPu-4">
          <mxGeometry x="390" y="30" width="120" height="60" as="geometry" />
        </mxCell>
        <mxCell id="6D2A175xbtIk_vj6jTPu-55" value="" style="edgeStyle=orthogonalEdgeStyle;rounded=0;orthogonalLoop=1;jettySize=auto;html=1;" edge="1" parent="6D2A175xbtIk_vj6jTPu-4" source="6D2A175xbtIk_vj6jTPu-52" target="6D2A175xbtIk_vj6jTPu-54">
          <mxGeometry relative="1" as="geometry" />
        </mxCell>
        <mxCell id="6D2A175xbtIk_vj6jTPu-52" value="&lt;font style=&quot;font-size: 9px;&quot;&gt;&lt;font style=&quot;font-size: 9px;&quot;&gt;Menunggu divisi produksi &lt;br&gt;&lt;/font&gt;&lt;font style=&quot;font-size: 9px;&quot;&gt;membuat persediaan produk baru&lt;/font&gt;&lt;/font&gt;" style="points=[[0.145,0.145,0],[0.5,0,0],[0.855,0.145,0],[1,0.5,0],[0.855,0.855,0],[0.5,1,0],[0.145,0.855,0],[0,0.5,0]];shape=mxgraph.bpmn.event;html=1;verticalLabelPosition=bottom;labelBackgroundColor=#ffffff;verticalAlign=top;align=center;perimeter=ellipsePerimeter;outlineConnect=0;aspect=fixed;outline=catching;symbol=timer;" vertex="1" parent="6D2A175xbtIk_vj6jTPu-4">
          <mxGeometry x="580" y="35" width="50" height="50" as="geometry" />
        </mxCell>
        <mxCell id="6D2A175xbtIk_vj6jTPu-57" value="" style="edgeStyle=orthogonalEdgeStyle;rounded=0;orthogonalLoop=1;jettySize=auto;html=1;" edge="1" parent="6D2A175xbtIk_vj6jTPu-4" source="6D2A175xbtIk_vj6jTPu-54" target="6D2A175xbtIk_vj6jTPu-56">
          <mxGeometry relative="1" as="geometry" />
        </mxCell>
        <mxCell id="6D2A175xbtIk_vj6jTPu-54" value="Menerima persediaan produk baru yang telah dibuat&amp;nbsp;" style="rounded=1;whiteSpace=wrap;html=1;verticalAlign=top;labelBackgroundColor=#ffffff;" vertex="1" parent="6D2A175xbtIk_vj6jTPu-4">
          <mxGeometry x="675" y="30" width="120" height="60" as="geometry" />
        </mxCell>
        <mxCell id="6D2A175xbtIk_vj6jTPu-56" value="Meneruskan persediaan produk baru ke sales" style="rounded=1;whiteSpace=wrap;html=1;verticalAlign=top;labelBackgroundColor=#ffffff;" vertex="1" parent="6D2A175xbtIk_vj6jTPu-4">
          <mxGeometry x="850" y="30" width="120" height="60" as="geometry" />
        </mxCell>
        <mxCell id="6D2A175xbtIk_vj6jTPu-5" value="`" style="swimlane;html=1;startSize=20;horizontal=0;" vertex="1" parent="6D2A175xbtIk_vj6jTPu-2">
          <mxGeometry x="20" y="370" width="1210" height="120" as="geometry" />
        </mxCell>
        <mxCell id="6D2A175xbtIk_vj6jTPu-35" value="" style="edgeStyle=orthogonalEdgeStyle;rounded=0;orthogonalLoop=1;jettySize=auto;html=1;" edge="1" parent="6D2A175xbtIk_vj6jTPu-5" source="6D2A175xbtIk_vj6jTPu-32" target="6D2A175xbtIk_vj6jTPu-34">
          <mxGeometry relative="1" as="geometry" />
        </mxCell>
        <mxCell id="6D2A175xbtIk_vj6jTPu-32" value="Menerima form pengirimsn" style="rounded=1;whiteSpace=wrap;html=1;labelBackgroundColor=#ffffff;" vertex="1" parent="6D2A175xbtIk_vj6jTPu-5">
          <mxGeometry x="930" y="30" width="120" height="60" as="geometry" />
        </mxCell>
        <mxCell id="6D2A175xbtIk_vj6jTPu-34" value="Mengemas dan mengirim produk ke pelanggan" style="rounded=1;whiteSpace=wrap;html=1;labelBackgroundColor=#ffffff;" vertex="1" parent="6D2A175xbtIk_vj6jTPu-5">
          <mxGeometry x="1080" y="30" width="120" height="60" as="geometry" />
        </mxCell>
        <mxCell id="6D2A175xbtIk_vj6jTPu-33" value="" style="edgeStyle=orthogonalEdgeStyle;rounded=0;orthogonalLoop=1;jettySize=auto;html=1;" edge="1" parent="6D2A175xbtIk_vj6jTPu-2" source="6D2A175xbtIk_vj6jTPu-30" target="6D2A175xbtIk_vj6jTPu-32">
          <mxGeometry relative="1" as="geometry" />
        </mxCell>
        <mxCell id="6D2A175xbtIk_vj6jTPu-45" value="" style="edgeStyle=orthogonalEdgeStyle;rounded=0;orthogonalLoop=1;jettySize=auto;html=1;exitX=0.5;exitY=1;exitDx=0;exitDy=0;" edge="1" parent="6D2A175xbtIk_vj6jTPu-2" source="6D2A175xbtIk_vj6jTPu-40" target="6D2A175xbtIk_vj6jTPu-44">
          <mxGeometry relative="1" as="geometry">
            <Array as="points">
              <mxPoint x="434" y="250" />
              <mxPoint x="150" y="250" />
            </Array>
          </mxGeometry>
        </mxCell>
        <mxCell id="6D2A175xbtIk_vj6jTPu-58" value="" style="edgeStyle=elbowEdgeStyle;fontSize=12;html=1;endArrow=blockThin;endFill=1;rounded=0;exitX=0.5;exitY=0;exitDx=0;exitDy=0;entryX=0.5;entryY=1;entryDx=0;entryDy=0;elbow=vertical;" edge="1" parent="6D2A175xbtIk_vj6jTPu-2" source="6D2A175xbtIk_vj6jTPu-56" target="6D2A175xbtIk_vj6jTPu-7">
          <mxGeometry width="160" relative="1" as="geometry">
            <mxPoint x="790" y="250" as="sourcePoint" />
            <mxPoint x="950" y="250" as="targetPoint" />
            <Array as="points">
              <mxPoint x="560" y="220" />
            </Array>
          </mxGeometry>
        </mxCell>
        <mxCell id="6D2A175xbtIk_vj6jTPu-18" value="" style="edgeStyle=orthogonalEdgeStyle;rounded=0;orthogonalLoop=1;jettySize=auto;html=1;" edge="1" parent="1" source="6D2A175xbtIk_vj6jTPu-14">
          <mxGeometry relative="1" as="geometry">
            <mxPoint x="120" y="90" as="targetPoint" />
            <Array as="points">
              <mxPoint x="460" y="150" />
              <mxPoint x="120" y="150" />
            </Array>
          </mxGeometry>
        </mxCell>
        <mxCell id="6D2A175xbtIk_vj6jTPu-20" value="" style="edgeStyle=orthogonalEdgeStyle;rounded=0;orthogonalLoop=1;jettySize=auto;html=1;exitX=0.667;exitY=1;exitDx=0;exitDy=0;exitPerimeter=0;" edge="1" parent="1" source="6D2A175xbtIk_vj6jTPu-17" target="6D2A175xbtIk_vj6jTPu-19">
          <mxGeometry relative="1" as="geometry" />
        </mxCell>
        <mxCell id="6D2A175xbtIk_vj6jTPu-26" value="" style="edgeStyle=orthogonalEdgeStyle;rounded=0;orthogonalLoop=1;jettySize=auto;html=1;exitX=0.5;exitY=0;exitDx=0;exitDy=0;entryX=0.5;entryY=1;entryDx=0;entryDy=0;" edge="1" parent="1" source="6D2A175xbtIk_vj6jTPu-21" target="6D2A175xbtIk_vj6jTPu-25">
          <mxGeometry relative="1" as="geometry">
            <Array as="points">
              <mxPoint x="750" y="130" />
              <mxPoint x="300" y="130" />
            </Array>
          </mxGeometry>
        </mxCell>
        <mxCell id="6D2A175xbtIk_vj6jTPu-29" value="" style="edgeStyle=orthogonalEdgeStyle;rounded=0;orthogonalLoop=1;jettySize=auto;html=1;" edge="1" parent="1" source="6D2A175xbtIk_vj6jTPu-25" target="6D2A175xbtIk_vj6jTPu-28">
          <mxGeometry relative="1" as="geometry" />
        </mxCell>
        <mxCell id="6D2A175xbtIk_vj6jTPu-37" value="" style="edgeStyle=orthogonalEdgeStyle;rounded=0;orthogonalLoop=1;jettySize=auto;html=1;entryX=0.5;entryY=1;entryDx=0;entryDy=0;" edge="1" parent="1" source="6D2A175xbtIk_vj6jTPu-34" target="6D2A175xbtIk_vj6jTPu-36">
          <mxGeometry relative="1" as="geometry">
            <Array as="points">
              <mxPoint x="1200" y="170" />
              <mxPoint x="1020" y="170" />
            </Array>
          </mxGeometry>
        </mxCell>
      </root>
    </mxGraphModel>
  </diagram>
</mxfile>
